<svg width="14" height="17" viewBox="0 0 14 17" fill="none" xmlns="http://www.w3.org/2000/svg">
<path d="M4.5 7.37018H3V9.00655H4.5V7.37018ZM7.5 7.37018H6V9.00655H7.5V7.37018ZM10.5 7.37018H9V9.00655H10.5V7.37018ZM12 1.63636H11.244V0H9.744V1.63636H3.744V0H2.244V1.63636H1.5C0.672 1.63636 0.012 2.36945 0.012 3.27273L0 14.7273C0 15.6305 0.672 16.3636 1.5 16.3636H12C12.828 16.3636 13.5 15.6305 13.5 14.7273V3.27273C13.5 2.36945 12.816 1.63636 12 1.63636ZM12 14.7273H1.5V5.73382H12V14.7273Z" fill="#CED1D7"/>
</svg>
