<svg width="20" height="25" viewBox="0 0 20 25" fill="none" xmlns="http://www.w3.org/2000/svg">
<path d="M19.8 18.5C19.8 16.3 18.3 14.8 16.9 14.1V10C16.9 6.5 14.3 3.6 10.9 3.1V1C10.9 0.4 10.5 0 9.9 0C9.3 0 8.9 0.4 8.9 1V3.1C5.5 3.6 2.9 6.5 2.9 10V14.1C1.5 14.8 0 16.3 0 18.5C0 19.1 0 20.5 0 21H5.4C5.7 23.3 7.6 25 9.9 25C12.2 25 14.1 23.2 14.4 21H19.8C19.8 20.4 19.8 19.1 19.8 18.5ZM9.9 23C8.7 23 7.6 22.1 7.4 21H12.4C12.2 22.2 11.1 23 9.9 23ZM17.8 19H2V18.5C2 17.2 2.9 16.3 3.7 15.9L4.9 15.4V14.1V10C4.9 7.2 7.1 5 9.9 5C12.7 5 14.9 7.2 14.9 10V14.1V15.4L16.1 15.9C16.9 16.3 17.8 17.2 17.8 18.5V19Z" fill="#959DAC"/>
</svg>
