<svg width="14" height="14" viewBox="0 0 14 14" fill="none" xmlns="http://www.w3.org/2000/svg">
    <mask id="path-1-inside-1_19849_38213" fill="white">
        <path d="M0 2C0 0.89543 0.895431 0 2 0H12C13.1046 0 14 0.895431 14 2V12C14 13.1046 13.1046 14 12 14H2C0.89543 14 0 13.1046 0 12V2Z"/>
    </mask>
    <path d="M2 2H12V-2H2V2ZM12 2V12H16V2H12ZM12 12H2V16H12V12ZM2 12V2H-2V12H2ZM2 12H2H-2C-2 14.2091 -0.209139 16 2 16V12ZM12 12V16C14.2091 16 16 14.2091 16 12H12ZM12 2H16C16 -0.209139 14.2091 -2 12 -2V2ZM2 -2C-0.209139 -2 -2 -0.209139 -2 2H2V2V-2Z" fill="#DBDFE9" mask="url(#path-1-inside-1_19849_38213)"/>
</svg>
