<svg width="23" height="21" viewBox="0 0 23 21" fill="none" xmlns="http://www.w3.org/2000/svg">
<path fill-rule="evenodd" clip-rule="evenodd" d="M17 9.5C17 13.6421 13.6421 17 9.5 17C5.35786 17 2 13.6421 2 9.5C2 5.35786 5.35786 2 9.5 2C13.6421 2 17 5.35786 17 9.5ZM16.3028 16.1312C14.5773 17.901 12.167 19 9.5 19C4.25329 19 0 14.7467 0 9.5C0 4.25329 4.25329 0 9.5 0C14.7467 0 19 4.25329 19 9.5C19 11.364 18.4632 13.1025 17.5357 14.5696C17.5965 14.6082 17.6541 14.6541 17.7071 14.7071L22.2929 19.2929C22.6834 19.6834 22.6834 20.3166 22.2929 20.7071C21.9024 21.0976 21.2692 21.0976 20.8787 20.7071L16.3028 16.1312Z" fill="#959DAC"/>
</svg>
