<svg width="14" height="14" viewBox="0 0 14 14" fill="none" xmlns="http://www.w3.org/2000/svg">
    <path fill-rule="evenodd" clip-rule="evenodd" d="M2 0C0.895431 0 0 0.89543 0 2V12C0 13.1046 0.89543 14 2 14H12C13.1046 14 14 13.1046 14 12V2C14 0.895431 13.1046 0 12 0H2ZM5.62749 9.98634C5.76998 10.1223 5.96798 10.1997 6.17797 10.1997C6.38796 10.1997 6.58596 10.1223 6.72845 9.98634L11.8699 5.12015C12.1519 4.84949 12.1324 4.42817 11.8294 4.17751C11.5249 3.92685 11.0494 3.94418 10.7689 4.21351L6.17797 8.5517L3.60145 6.09469C3.31946 5.82403 2.84698 5.80803 2.54099 6.05869C2.238 6.30801 2.2185 6.73067 2.50049 7L5.62749 9.98634Z" fill="#008AF5"/>
</svg>
