<svg width="18" height="18" viewBox="0 0 18 18" fill="none" xmlns="http://www.w3.org/2000/svg">
<path fill-rule="evenodd" clip-rule="evenodd" d="M11.9397 4.77C11.9397 3.15 10.5829 1.8 8.9548 1.8C7.32666 1.8 5.96987 3.15 5.96987 4.77C5.96987 6.39 7.32666 7.74 8.9548 7.74C10.5829 7.74 11.9397 6.39 11.9397 4.77ZM4.16083 4.77C4.16083 2.16 6.33168 0 8.9548 0C11.5779 0 13.7488 2.16 13.7488 4.77C13.7488 7.38 11.5779 9.54 8.9548 9.54C6.33168 9.54 4.16083 7.38 4.16083 4.77ZM16.0101 16.2C15.5578 14.22 13.8392 12.24 11.9397 12.24H6.0603C4.1608 12.24 2.44221 14.22 1.98995 16.2H16.0101ZM6.0603 10.44H11.9397C15.2864 10.44 18 14.04 18 17.37V18H0.633166H0V17.37C0 14.04 2.71357 10.44 6.0603 10.44Z" fill="white"/>
</svg>
