<svg width="24" height="24" viewBox="0 0 24 24" fill="none" xmlns="http://www.w3.org/2000/svg">
<g clip-path="url(#clip0_187_6192)">
<path d="M12 15.9667C13.0758 15.9667 13.9886 15.5817 14.7386 14.8117C15.4886 14.0417 15.8636 13.1044 15.8636 12C15.8636 10.8956 15.4886 9.95833 14.7386 9.18833C13.9886 8.41833 13.0758 8.03333 12 8.03333C10.9242 8.03333 10.0114 8.41833 9.26136 9.18833C8.51136 9.95833 8.13636 10.8956 8.13636 12C8.13636 13.1044 8.51136 14.0417 9.26136 14.8117C10.0114 15.5817 10.9242 15.9667 12 15.9667ZM12 14.6133C11.2879 14.6133 10.6856 14.3606 10.1932 13.855C9.70076 13.3494 9.45455 12.7311 9.45455 12C9.45455 11.2689 9.70076 10.6506 10.1932 10.145C10.6856 9.63944 11.2879 9.38667 12 9.38667C12.7121 9.38667 13.3144 9.63944 13.8068 10.145C14.2992 10.6506 14.5455 11.2689 14.5455 12C14.5455 12.7311 14.2992 13.3494 13.8068 13.855C13.3144 14.3606 12.7121 14.6133 12 14.6133ZM12 19C9.78788 19 7.78788 18.3544 6 17.0633C4.21212 15.7722 2.87879 14.0844 2 12C2.87879 9.91556 4.21212 8.22778 6 6.93667C7.78788 5.64556 9.78788 5 12 5C14.2121 5 16.2121 5.64556 18 6.93667C19.7879 8.22778 21.1212 9.91556 22 12C21.1212 14.0844 19.7879 15.7722 18 17.0633C16.2121 18.3544 14.2121 19 12 19ZM12 17.6C13.8333 17.6 15.5189 17.0906 17.0568 16.0717C18.5947 15.0528 19.7652 13.6956 20.5682 12C19.7652 10.3044 18.5947 8.94722 17.0568 7.92833C15.5189 6.90944 13.8333 6.4 12 6.4C10.1667 6.4 8.48106 6.90944 6.94318 7.92833C5.4053 8.94722 4.22727 10.3044 3.40909 12C4.22727 13.6956 5.4053 15.0528 6.94318 16.0717C8.48106 17.0906 10.1667 17.6 12 17.6Z" fill="#008AF5" stroke="#008AF5" stroke-width="0.5"/>
</g>
<defs>
<clipPath id="clip0_187_6192">
<rect width="24" height="24" fill="white"/>
</clipPath>
</defs>
</svg>
